<?xml version="1.0"?>
<svg width="640" height="480" xmlns="http://www.w3.org/2000/svg" xmlns:svg="http://www.w3.org/2000/svg">
 <!-- Created with SVG-edit - https://github.com/SVG-Edit/svgedit-->
 <g class="layer">
  <title>Layer 1</title>
  <text fill="#000000" font-family="serif" font-size="24" id="svg_10" stroke="#000000" stroke-dasharray="null" stroke-linecap="null" stroke-linejoin="null" stroke-width="0" text-anchor="middle" x="115.5" xml:space="preserve" y="235.5"/>
  <text fill="#000000" font-family="serif" font-size="24" id="svg_1" stroke="#000000" stroke-width="0" text-anchor="middle" transform="matrix(5.06349 0 0 5.06349 -277.016 -585.333)" x="87.423197" xml:space="preserve" y="167.474922">T</text>
  <text fill="#000000" font-family="serif" font-size="24" id="svg_2" stroke="#000000" stroke-dasharray="null" stroke-linecap="null" stroke-linejoin="null" stroke-width="0" text-anchor="middle" transform="matrix(3.22242 0 0 3.22242 -291.488 -465.31)" x="150.188561" xml:space="preserve" y="225.844559">r</text>
  <text fill="#000000" font-family="serif" font-size="24" id="svg_3" stroke="#000000" stroke-dasharray="null" stroke-linecap="null" stroke-linejoin="null" stroke-width="0" text-anchor="middle" transform="matrix(3.06103 0 0 3.06103 -305.704 -450.45)" x="171.087566" xml:space="preserve" y="232.547876">o</text>
  <text fill="#000000" font-family="serif" font-size="24" id="svg_4" stroke="#000000" stroke-dasharray="null" stroke-linecap="null" stroke-linejoin="null" stroke-width="0" text-anchor="middle" transform="matrix(3.38454 0 0 3.38454 -312.172 -211.697)" x="162.323964" xml:space="preserve" y="140.014531">l</text>
  <text fill="#000000" font-family="serif" font-size="24" id="svg_5" stroke="#000000" stroke-dasharray="null" stroke-linecap="null" stroke-linejoin="null" stroke-width="0" text-anchor="middle" transform="matrix(3.33577 0 0 3.33577 -482.876 -499.234)" x="221.184902" xml:space="preserve" y="228.198031">l</text>
  <text fill="#000000" font-family="serif" font-size="24" id="svg_6" stroke="#000000" stroke-dasharray="null" stroke-linecap="null" stroke-linejoin="null" stroke-width="0" text-anchor="middle" transform="matrix(3.2695 0 0 3.2695 -529.071 -455.504)" x="245.5" xml:space="preserve" y="219.5">e</text>
  <text fill="#000000" font-family="serif" font-size="24" id="svg_7" stroke="#000000" stroke-dasharray="null" stroke-linecap="null" stroke-linejoin="null" stroke-width="0" text-anchor="middle" transform="matrix(3.21792 0 0 3.21792 -496.487 -459.609)" x="248.424253" xml:space="preserve" y="224.382087">y</text>
  <text fill="#000000" font-family="serif" font-size="24" id="svg_8" stroke="#000000" stroke-dasharray="null" stroke-linecap="null" stroke-linejoin="null" stroke-width="0" text-anchor="middle" transform="matrix(5.06852 0 0 5.06852 -1141.97 -749.332)" x="290.520539" xml:space="preserve" y="199.705971">T</text>
  <text fill="#000000" font-family="serif" font-size="24" id="svg_11" stroke="#000000" stroke-dasharray="null" stroke-linecap="null" stroke-linejoin="null" stroke-width="0" text-anchor="middle" transform="matrix(3.12301 0 0 3.12301 -598.648 -420.334)" x="307.777346" xml:space="preserve" y="218.471205">u</text>
  <text fill="#000000" font-family="serif" font-size="24" id="svg_12" stroke="#000000" stroke-dasharray="null" stroke-linecap="null" stroke-linejoin="null" stroke-width="0" text-anchor="middle" transform="matrix(3.15404 0 0 3.15404 -660.115 -524.219)" x="332.840459" xml:space="preserve" y="249.506008">r</text>
  <text fill="#000000" font-family="serif" font-size="24" id="svg_13" stroke="#000000" stroke-dasharray="null" stroke-linecap="null" stroke-linejoin="null" stroke-width="0" text-anchor="middle" transform="matrix(2.98705 0 0 2.98705 -722.561 -487.751)" x="385.711169" xml:space="preserve" y="251.388441">m</text>
  <text fill="#000000" font-family="serif" font-size="24" id="svg_15" stroke="#000000" stroke-dasharray="null" stroke-linecap="null" stroke-linejoin="null" stroke-width="0" text-anchor="middle" transform="matrix(2.95076 0 0 2.95076 -778.604 -462.992)" x="423.146983" xml:space="preserve" y="246.023748">o</text>
  <text fill="#000000" font-family="serif" font-size="24" id="svg_16" stroke="#000000" stroke-dasharray="null" stroke-linecap="null" stroke-linejoin="null" stroke-width="0" text-anchor="middle" transform="matrix(2.99555 0 0 2.99555 -920.29 -499.884)" x="471.186989" xml:space="preserve" y="254.513383">i</text>
  <text fill="#000000" font-family="serif" font-size="24" id="svg_17" stroke="#000000" stroke-dasharray="null" stroke-linecap="null" stroke-linejoin="null" stroke-width="0" text-anchor="middle" transform="matrix(3.35906 0 0 3.35906 -782.467 -343.016)" x="384.027002" xml:space="preserve" y="180.231934">l</text>
  <path d="m131.096251,128.048673l0.124999,-0.124999l0,0.0625l0.164772,0l0,-0.187499l-0.0625,0l0.124999,-0.124999l0.124999,0.124999l-0.0625,0l0,0.187499l0.164772,0l0,-0.0625l0.124999,0.124999l-0.124999,0.124999l0,-0.0625l-0.454542,0l0,0.0625l-0.124999,-0.124999l0,0z" fill="#000000" id="svg_18" stroke="#000000" stroke-dasharray="null" stroke-linecap="null" stroke-linejoin="null" stroke-width="0"/>
 </g>
</svg>